<?xml version="1.0" encoding="UTF-8"?><svg xmlns="http://www.w3.org/2000/svg" xmlns:xlink="http://www.w3.org/1999/xlink" viewBox="0 0 911.88 911.88"><defs><linearGradient id="b" x1="187.68" y1="724.2" x2="724.2" y2="187.68" gradientUnits="userSpaceOnUse"><stop offset="0" stop-color="#0078bf"/><stop offset="1" stop-color="#b4e1e4"/></linearGradient><linearGradient id="c" x1="157.64" y1="455.94" x2="754.23" y2="455.94" gradientUnits="userSpaceOnUse"><stop offset="0" stop-color="#c6dae4"/><stop offset="1" stop-color="#d8e8f2"/></linearGradient><linearGradient id="e" x1="159.83" y1="288.7" x2="742.67" y2="288.7" gradientUnits="userSpaceOnUse"><stop offset="0" stop-color="#10141b"/><stop offset="1" stop-color="#183d50"/></linearGradient><linearGradient id="f" y1="623.18" y2="623.18" xlink:href="#e"/><linearGradient id="h" x1="411.83" y1="549.04" x2="614.83" y2="346.05" gradientUnits="userSpaceOnUse"><stop offset="0" stop-color="#2574bb"/><stop offset="1" stop-color="#212e68"/></linearGradient></defs><g id="a"><circle cx="455.94" cy="455.94" r="379.38" style="fill:url(#b); stroke-width:0px;"/><circle cx="455.94" cy="455.94" r="298.29" style="fill:url(#c); stroke-width:0px;"/></g><g id="d"><path d="M455.94,157.64c-152.49,0-278.24,114.43-296.1,262.11h79.68c17.25-103.96,107.57-183.23,216.43-183.23,92,0,170.76,56.63,203.36,136.92h83.37c-35.79-124.62-150.61-215.8-286.73-215.8Z" style="fill:url(#e); stroke-width:0px;"/><path d="M659.3,538.43c-32.6,80.29-111.36,136.92-203.36,136.92-108.85,0-199.17-79.27-216.43-183.23h-79.68c17.86,147.68,143.61,262.11,296.1,262.11,136.13,0,250.94-91.19,286.73-215.8h-83.37Z" style="fill:url(#f); stroke-width:0px;"/></g><g id="g"><path d="M553.94,413.94l17.5-38.5,38.5-17.5-38.5-17.5-17.5-38.5-17.5,38.5-38.5,17.5,38.5,17.5,17.5,38.5ZM448.94,420.94l-35-77-35,77-77,35,77,35,35,77,35-77,77-35-77-35ZM553.94,497.94l-17.5,38.5-38.5,17.5,38.5,17.5,17.5,38.5,17.5-38.5,38.5-17.5-38.5-17.5-17.5-38.5Z" style="fill:url(#h); stroke-width:0px;"/></g></svg>